<svg width="237" height="41" viewBox="0 0 237 41" fill="none" xmlns="http://www.w3.org/2000/svg">
<path d="M44.5 33.1V22.9H61V16.6H44.5V7.10002H60.9V0.400024H36.8V39.9H64.2V33.1H44.5Z" fill="white"/>
<path d="M89.5 39.49C91.1746 39.1127 92.767 38.4351 94.2 37.49C95.5646 36.5922 96.6684 35.3505 97.4 33.89C98.2402 32.2527 98.653 30.4296 98.6 28.59C98.7045 26.5488 98.181 24.5246 97.1 22.79C95.9542 21.2688 94.44 20.0643 92.7 19.29C90.5215 18.2839 88.242 17.5128 85.9 16.99C83.9 16.49 82.2 15.99 80.9 15.59C79.8015 15.2665 78.7807 14.722 77.9 13.99C77.5601 13.6722 77.2942 13.2835 77.1214 12.8515C76.9486 12.4194 76.873 11.9546 76.9 11.49C76.8685 10.8499 76.9985 10.2121 77.2781 9.63544C77.5577 9.05876 77.9779 8.56169 78.5 8.19001C79.9107 7.33496 81.5564 6.9498 83.2 7.09001C84.3792 7.06897 85.556 7.20346 86.7 7.49001C87.7865 7.79628 88.8549 8.16353 89.9 8.59001C90.7643 8.96103 91.5999 9.39555 92.4 9.89001C92.9043 10.1673 93.3742 10.5029 93.8 10.89L97.2 4.69001C95.9597 3.85556 94.6557 3.11996 93.3 2.49001C91.8285 1.79333 90.2863 1.25691 88.7 0.890009C86.9971 0.481881 85.2512 0.280429 83.5 0.290009C80.9982 0.271507 78.5174 0.747277 76.2 1.69001C74.1109 2.53234 72.3065 3.95503 71 5.79001C69.6284 7.78688 68.9279 10.1685 69 12.59C68.9449 14.3341 69.3594 16.0609 70.2 17.59C71.1368 18.9832 72.4092 20.118 73.9 20.89C75.8667 21.9276 77.9473 22.733 80.1 23.29C82.2 23.89 84 24.39 85.5 24.89C86.771 25.2609 87.9591 25.8719 89 26.69C89.3987 27.0357 89.7138 27.4672 89.9216 27.9522C90.1295 28.4371 90.2247 28.9629 90.2 29.49C90.2296 30.088 90.0964 30.6828 89.8146 31.2111C89.5329 31.7394 89.1131 32.1814 88.6 32.49C87.1635 33.2722 85.5305 33.6197 83.9 33.49C82.4127 33.4941 80.932 33.2922 79.5 32.89C78.1225 32.5606 76.7823 32.0915 75.5 31.49C74.426 31.0396 73.3894 30.5046 72.4 29.89C71.7449 29.5385 71.1396 29.1014 70.6 28.59L67.2 35.19C68.7752 36.2781 70.4492 37.2156 72.2 37.99C74.0153 38.7396 75.888 39.3415 77.8 39.79C79.7329 40.2417 81.7158 40.4433 83.7 40.39C85.6603 40.3017 87.6051 39.9999 89.5 39.49Z" fill="white"/>
<path d="M121.317 26.1003L121.306 26.1L121.295 26.1001L111.895 26.2001L111.4 26.2053V26.7V39.4H104.7V0.900046L120.9 0.900047L120.901 0.900046C122.555 0.896852 124.189 1.25644 125.689 1.95347L125.689 1.95361L125.7 1.9585C127.178 2.60167 128.485 3.58162 129.516 4.81999L129.524 4.83007L129.533 4.8397C130.618 6.01206 131.467 7.38293 132.032 8.87703L132.033 8.87899C132.599 10.3548 132.892 11.9209 132.9 13.5014C132.902 15.6112 132.407 17.6919 131.454 19.5742L131.453 19.5768C130.515 21.457 129.127 23.0764 127.412 24.2912C125.63 25.5386 123.491 26.1735 121.317 26.1003ZM111.9 6.60005H111.396L111.4 7.10392L111.5 20.0039L111.504 20.5H112L120.9 20.5001L120.902 20.5C121.925 20.495 122.923 20.1888 123.772 19.6198C124.687 19.0474 125.389 18.1889 125.767 17.1774C126.207 16.0365 126.421 14.8216 126.4 13.5994C126.419 12.3077 126.126 11.0305 125.547 9.87579L125.547 9.87571L125.541 9.8642C125.029 8.90709 124.288 8.09132 123.385 7.48932C122.545 6.88205 121.528 6.56939 120.492 6.60005H111.9Z" fill="white" stroke="white"/>
<path d="M164.5 33.1H144.8V22.9H161.3V16.6H144.8V7.10002H161.3V0.400024H137.1V39.9H164.5V33.1Z" fill="white"/>
<path d="M191.9 39.1C194.038 38.4318 196.037 37.3815 197.8 36C199.504 34.6921 200.846 32.9712 201.7 31L195.5 27.3C194.892 28.6382 194.006 29.8314 192.9 30.8C191.852 31.656 190.669 32.3319 189.4 32.8C188.216 33.2343 186.96 33.438 185.7 33.4C184.069 33.4037 182.46 33.0271 181 32.3C179.573 31.5653 178.314 30.544 177.3 29.3C176.269 28.0087 175.458 26.5558 174.9 25C174.335 23.395 174.064 21.7012 174.1 20C174.08 18.406 174.316 16.819 174.8 15.3C175.255 13.7903 175.965 12.3697 176.9 11.1C177.855 9.8123 179.085 8.75335 180.5 8.00003C182.038 7.18252 183.759 6.76957 185.5 6.80003C186.723 6.82004 187.936 7.02226 189.1 7.40003C190.352 7.81791 191.532 8.42494 192.6 9.20003C193.757 10.1201 194.653 11.3267 195.2 12.7L201 8.60003C199.694 5.99216 197.64 3.83335 195.1 2.40003C192.25 0.743143 188.995 -0.0878647 185.7 2.89138e-05C182.876 -0.0275299 180.08 0.552234 177.5 1.70003C175.159 2.73151 173.076 4.26826 171.4 6.20003C169.727 8.02671 168.436 10.1684 167.6 12.5C166.774 14.7777 166.334 17.1774 166.3 19.6C166.338 22.1288 166.811 24.6322 167.7 27C168.642 29.4145 169.996 31.6475 171.7 33.6C173.372 35.5452 175.411 37.1422 177.7 38.3C180.083 39.5157 182.725 40.1334 185.4 40.1C187.606 40.1101 189.799 39.7727 191.9 39.1Z" fill="white"/>
<path d="M223.7 7.10002H235.3L236.3 0.400024H203.4V7.10002H216.1V39.9H223.7V7.10002Z" fill="white"/>
<path d="M31 32.7C29.7 32.7 28.3 32 26.6 30.8C25.4171 29.9317 24.3427 28.9245 23.4 27.8C22.7677 27.0486 22.199 26.2458 21.7 25.4C22.0772 25.2976 22.4451 25.1638 22.8 25C24.2585 24.406 25.5592 23.4818 26.6 22.3C28.8003 19.899 30.0144 16.7567 30 13.5C30.0014 11.8579 29.6962 10.23 29.1 8.70002C28.5129 7.14217 27.63 5.71258 26.5 4.49001C25.3798 3.20332 23.9969 2.17161 22.4445 1.46438C20.892 0.757138 19.206 0.390792 17.5 0.390015H0V39.89H7.7V26.7H14.1C14.3 27 14.5 27.4 14.7 27.7C15.7219 29.3954 16.9294 30.9718 18.3 32.4C20.9048 35.2508 24.0712 37.5319 27.6 39.1C29.1474 39.7659 30.8154 40.1063 32.5 40.1L31 32.7ZM7.5 19.9V7.10001H16.85C17.7739 7.12127 18.6739 7.39818 19.45 7.90001C20.2888 8.49818 20.9741 9.28632 21.45 10.2C21.972 11.222 22.2461 12.3525 22.25 13.5C22.2906 14.6087 22.0498 15.7096 21.55 16.7C21.1486 17.6032 20.5303 18.3933 19.75 19C19.0205 19.6043 18.0969 19.924 17.15 19.9H7.5Z" fill="white"/>
</svg>
